<svg xmlns="http://www.w3.org/2000/svg" xmlns:xlink="http://www.w3.org/1999/xlink" version="1.1" x="0px" y="0px" viewBox="0 0 32 40" style="enable-background:new 0 0 32 32;" xml:space="preserve"><style type="text/css">
	.st0{display:none;}
	.st1{display:inline;}
</style><g><path d="M27.37,15.719l-3.09,3.091c-0.529,0.528-1.393,0.529-1.923,0c-0.53-0.53-0.53-1.394,0-1.924l3.09-3.091   c0.972-0.971,1.508-2.256,1.509-3.619c0-1.278-0.464-2.499-1.306-3.437c-0.884-0.985-2.144-1.548-3.547-1.586   C22.051,5.152,22,5.151,21.948,5.151c-1.506,0-2.968,0.601-4.03,1.662l-2.817,2.817c-0.53,0.53-1.393,0.529-1.924,0   c-0.256-0.257-0.398-0.599-0.398-0.962s0.142-0.705,0.398-0.962l2.817-2.817c1.622-1.621,3.886-2.512,6.18-2.455   c2.158,0.059,4.11,0.941,5.498,2.485c1.291,1.438,2.002,3.306,2.002,5.256C29.674,12.265,28.856,14.232,27.37,15.719z"/><path d="M18.807,24.282l-2.835,2.836c-1.617,1.617-3.843,2.507-6.164,2.447c-2.153-0.059-4.101-0.942-5.485-2.487   c-1.288-1.437-1.997-3.301-1.997-5.252c-0.019-2.088,0.794-4.061,2.29-5.556l3.09-3.09c0.257-0.257,0.598-0.398,0.961-0.398   s0.705,0.142,0.962,0.398c0.256,0.257,0.398,0.599,0.398,0.962s-0.142,0.705-0.398,0.962l-3.09,3.09   c-0.975,0.975-1.505,2.262-1.493,3.619c0,1.287,0.463,2.513,1.303,3.45c0.881,0.983,2.137,1.545,3.534,1.583   c1.535,0.025,3.074-0.56,4.167-1.653l2.835-2.835c0.528-0.529,1.392-0.53,1.923,0C19.337,22.889,19.337,23.752,18.807,24.282z"/><path d="M9.922,20.15L20.148,9.924c0.265-0.265,0.613-0.397,0.961-0.397c0.348,0,0.696,0.133,0.961,0.397   c0.53,0.53,0.53,1.394,0,1.924L11.845,22.074c-0.514,0.514-1.409,0.514-1.923,0c-0.256-0.257-0.398-0.599-0.398-0.962   S9.666,20.407,9.922,20.15z"/></g><text x="0" y="47" fill="#000000" font-size="5px" font-weight="bold" font-family="'Helvetica Neue', Helvetica, Arial-Unicode, Arial, Sans-serif">Created by Fabien</text><text x="0" y="52" fill="#000000" font-size="5px" font-weight="bold" font-family="'Helvetica Neue', Helvetica, Arial-Unicode, Arial, Sans-serif">from the Noun Project</text></svg>